<svg width="37" height="13" viewBox="0 0 37 13" fill="none" xmlns="http://www.w3.org/2000/svg">
<path d="M9.656 12H7.416L2.344 4.336V12H0.104V0.815999H2.344L7.416 8.496V0.815999H9.656V12ZM14.1096 0.832V12H11.8696V0.832H14.1096ZM20.1788 12.112C19.4001 12.112 18.6961 11.9787 18.0668 11.712C17.4481 11.4453 16.9574 11.0613 16.5948 10.56C16.2321 10.0587 16.0454 9.46667 16.0348 8.784H18.4348C18.4668 9.24267 18.6268 9.60533 18.9148 9.872C19.2134 10.1387 19.6188 10.272 20.1308 10.272C20.6534 10.272 21.0641 10.1493 21.3628 9.904C21.6614 9.648 21.8108 9.31733 21.8108 8.912C21.8108 8.58133 21.7094 8.30933 21.5068 8.096C21.3041 7.88267 21.0481 7.71733 20.7388 7.6C20.4401 7.472 20.0241 7.33333 19.4908 7.184C18.7654 6.97067 18.1734 6.76267 17.7148 6.56C17.2668 6.34667 16.8774 6.032 16.5468 5.616C16.2268 5.18933 16.0668 4.624 16.0668 3.92C16.0668 3.25867 16.2321 2.68267 16.5628 2.192C16.8934 1.70133 17.3574 1.328 17.9548 1.072C18.5521 0.805333 19.2348 0.672 20.0028 0.672C21.1548 0.672 22.0881 0.954666 22.8028 1.52C23.5281 2.07467 23.9281 2.85333 24.0028 3.856H21.5388C21.5174 3.472 21.3521 3.15733 21.0428 2.912C20.7441 2.656 20.3441 2.528 19.8428 2.528C19.4054 2.528 19.0534 2.64 18.7868 2.864C18.5308 3.088 18.4028 3.41333 18.4028 3.84C18.4028 4.13867 18.4988 4.38933 18.6908 4.592C18.8934 4.784 19.1388 4.944 19.4268 5.072C19.7254 5.18933 20.1414 5.328 20.6748 5.488C21.4001 5.70133 21.9921 5.91467 22.4508 6.128C22.9094 6.34133 23.3041 6.66133 23.6348 7.088C23.9654 7.51467 24.1308 8.07467 24.1308 8.768C24.1308 9.36533 23.9761 9.92 23.6667 10.432C23.3574 10.944 22.9041 11.3547 22.3068 11.664C21.7094 11.9627 21.0001 12.112 20.1788 12.112ZM32.9208 9.872H28.4728L27.7368 12H25.3848L29.4008 0.815999H32.0088L36.0248 12H33.6568L32.9208 9.872ZM32.3128 8.08L30.6968 3.408L29.0807 8.08H32.3128Z" fill="white"/>
</svg>
